<svg width="19" height="19" viewBox="0 0 19 19" fill="none" xmlns="http://www.w3.org/2000/svg">
<g filter="url(#filter0_d_554_664)">
<circle cx="9.5" cy="7.5" r="7.5" fill="#6F6EFF"/>
</g>
<path d="M9.46071 7.16944C8.23428 6.85806 7.83988 6.53611 7.83988 6.03472C7.83988 5.45944 8.38556 5.05833 9.29862 5.05833C10.2603 5.05833 10.6169 5.50694 10.6493 6.16667H11.8433C11.8055 5.25889 11.2382 4.425 10.109 4.15583V3H8.48821V4.14C7.44008 4.36167 6.59725 5.02667 6.59725 6.04528C6.59725 7.26444 7.62917 7.87139 9.13654 8.225C10.4872 8.54167 10.7574 9.00611 10.7574 9.49694C10.7574 9.86111 10.4926 10.4417 9.29862 10.4417C8.18566 10.4417 7.74804 9.95611 7.68861 9.33333H6.5C6.56483 10.4892 7.45088 11.1383 8.48821 11.3547V12.5H10.109V11.3653C11.1626 11.17 12 10.5736 12 9.49167C12 7.99278 10.6871 7.48083 9.46071 7.16944Z" fill="white"/>
<defs>
<filter id="filter0_d_554_664" x="0" y="0" width="19" height="19" filterUnits="userSpaceOnUse" color-interpolation-filters="sRGB">
<feFlood flood-opacity="0" result="BackgroundImageFix"/>
<feColorMatrix in="SourceAlpha" type="matrix" values="0 0 0 0 0 0 0 0 0 0 0 0 0 0 0 0 0 0 127 0" result="hardAlpha"/>
<feOffset dy="2"/>
<feGaussianBlur stdDeviation="1"/>
<feComposite in2="hardAlpha" operator="out"/>
<feColorMatrix type="matrix" values="0 0 0 0 0 0 0 0 0 0 0 0 0 0 0 0 0 0 0.25 0"/>
<feBlend mode="normal" in2="BackgroundImageFix" result="effect1_dropShadow_554_664"/>
<feBlend mode="normal" in="SourceGraphic" in2="effect1_dropShadow_554_664" result="shape"/>
</filter>
</defs>
</svg>
