<svg width="18" height="27" viewBox="0 0 18 27" fill="none" xmlns="http://www.w3.org/2000/svg">
<path fill-rule="evenodd" clip-rule="evenodd" d="M16.7899 11.6982C17.2094 10.696 17.4411 9.59571 17.4411 8.44126C17.4411 3.77928 13.6618 0 8.99986 0C4.33788 0 0.558594 3.77928 0.558594 8.44126C0.558594 9.59571 0.790343 10.696 1.20986 11.6982H16.7899Z" fill="#6F6EFF"/>
<path d="M9 26.4888L1.20577 11.6765L16.7942 11.6765L9 26.4888Z" fill="#6F6EFF"/>
<path d="M14.4998 8.26699C14.4998 11.3045 12.0374 13.7669 8.9999 13.7669C5.96239 13.7669 3.5 11.3045 3.5 8.26699C3.5 5.22948 5.96239 2.76709 8.9999 2.76709C12.0374 2.76709 14.4998 5.22948 14.4998 8.26699ZM4.40866 8.26699C4.40866 10.8027 6.46423 12.8582 8.9999 12.8582C11.5356 12.8582 13.5911 10.8027 13.5911 8.26699C13.5911 5.73132 11.5356 3.67575 8.9999 3.67575C6.46423 3.67575 4.40866 5.73132 4.40866 8.26699Z" fill="white"/>
<path d="M10.2642 6.82161V5.73714H7.73626V6.82161H7.10429V5.01416H10.8961V6.82161H10.2642ZM10.8961 8.44832C10.9857 8.44832 11.0607 8.41368 11.1213 8.34439C11.1819 8.27511 11.2121 8.18925 11.2121 8.08683C11.2121 7.98441 11.1819 7.89856 11.1213 7.82927C11.0607 7.75998 10.9857 7.72534 10.8961 7.72534C10.8066 7.72534 10.7316 7.75998 10.671 7.82927C10.6104 7.89856 10.5802 7.98441 10.5802 8.08683C10.5802 8.18925 10.6104 8.27511 10.671 8.34439C10.7316 8.41368 10.8066 8.44832 10.8961 8.44832ZM10.2642 10.798V9.35205H7.73626V10.798H10.2642ZM10.8961 11.521H7.10429V10.075H5.84033V7.90609C5.84033 7.59882 5.9325 7.34126 6.11682 7.1334C6.30115 6.92554 6.52497 6.82161 6.7883 6.82161H11.2121C11.4807 6.82161 11.7059 6.92554 11.8876 7.1334C12.0693 7.34126 12.1601 7.59882 12.1601 7.90609V10.075H10.8961V11.521ZM11.5281 9.35205V7.90609C11.5281 7.80366 11.4978 7.71781 11.4373 7.64852C11.3767 7.57924 11.3017 7.5446 11.2121 7.5446H6.7883C6.69877 7.5446 6.62372 7.57924 6.56316 7.64852C6.50259 7.71781 6.47231 7.80366 6.47231 7.90609V9.35205H7.10429V8.62907H10.8961V9.35205H11.5281Z" fill="white"/>
</svg>
